<?xml version="1.0" encoding="UTF-8" standalone="no"?>
<!DOCTYPE svg PUBLIC "-//W3C//DTD SVG 1.1//EN" "http://www.w3.org/Graphics/SVG/1.1/DTD/svg11.dtd">
<svg width="100%" height="100%" viewBox="0 0 96 75" version="1.1" xmlns="http://www.w3.org/2000/svg" xmlns:xlink="http://www.w3.org/1999/xlink" xml:space="preserve" xmlns:serif="http://www.serif.com/" style="fill-rule:evenodd;clip-rule:evenodd;stroke-linejoin:round;stroke-miterlimit:2;">
    <g transform="matrix(1,0,0,1,-2,-11)">
        <path d="M74.172,35.141C75.953,35.141 77.691,35.352 79.371,35.75C78.18,34.559 77.02,33.36 75.973,32.102C71.735,28.301 68.664,22.09 62.203,22.09C56.781,22.09 52.383,26.488 52.383,31.91L52.383,32.031L47.621,32.031L47.621,31.91C47.621,26.488 43.23,22.09 37.812,22.09C31.351,22.09 28.273,28.301 24.042,32.102C22.972,33.371 21.804,34.582 20.601,35.782C30.589,33.172 41.8,38.211 46.523,47.462C46.663,45.591 46.792,43.731 46.933,41.86L53.105,41.86C53.234,43.688 53.374,45.532 53.503,47.36C57.472,39.86 65.714,35.079 74.183,35.122L74.172,35.141Z" style="fill:rgb(54,83,143);fill-rule:nonzero;"/>
        <path d="M26.18,38.129C21.821,38.129 17.758,39.457 14.45,41.82C13.411,42.899 12.411,44 11.489,45.141C11.528,45.09 11.579,45.051 11.618,45C5.087,52.25 4.157,64.109 12.177,72.148C23.697,83.718 43.736,76.757 45.575,60.437L45.606,60.265C45.696,59.496 45.754,58.726 45.754,57.937C45.825,56.976 45.895,56.015 45.965,55.058C44.606,45.668 35.703,37.949 26.195,38.128L26.18,38.129ZM24.379,38.711C23.438,38.789 22.539,38.942 21.66,39.141C22.551,38.942 23.45,38.789 24.379,38.711ZM37.371,69.559C27.422,79.629 10.031,72.411 10.07,58.27C11.082,37.02 40.968,36.969 42.058,58.129C42.058,62.489 40.398,66.528 37.367,69.57L37.371,69.559Z" style="fill:rgb(54,83,143);fill-rule:nonzero;"/>
        <path d="M54.398,60.27L54.429,60.442C56.808,79.563 81.878,84.391 91.21,67.622C95.159,60.692 94.011,50.981 88.519,45.134C88.191,44.762 87.847,44.423 87.507,44.094C87.859,44.434 88.199,44.774 88.519,45.134C87.609,44.005 86.62,42.915 85.589,41.844C73.851,33.134 56.011,40.665 54.058,55.153C54.128,56.083 54.187,57.013 54.257,57.935C54.257,58.724 54.316,59.493 54.406,60.263L54.398,60.27ZM89.929,58.122C90.12,66.813 82.601,74.423 73.941,74.263C65.121,74.263 57.941,67.083 57.941,58.263C58.953,37.001 88.839,36.962 89.929,58.122L89.929,58.122ZM73.929,38.63C74.14,38.63 74.351,38.641 74.558,38.649C74.117,38.649 73.679,38.649 73.238,38.669C73.468,38.669 73.687,38.637 73.929,38.637L73.929,38.63ZM73.089,38.673C68.019,38.954 63.14,41.192 59.62,44.864C63.019,41.235 67.78,38.903 73.089,38.673ZM54.308,57.931C54.308,58.079 54.296,58.22 54.296,58.372C54.285,58.224 54.296,58.071 54.308,57.931Z" style="fill:rgb(54,83,143);fill-rule:nonzero;"/>
        <path d="M26.07,45.328C20.07,45.328 13.441,49.398 13.07,58.316C13.07,65.418 18.898,71.246 26.07,71.246C33.082,71.387 39.211,65.176 39.07,58.168C38.699,49.359 32.082,45.316 26.07,45.316L26.07,45.328ZM26.129,67.601L26.129,66.101L26.097,67.601C24.925,67.691 23.629,67.292 23.738,65.902C23.828,65.081 24.558,64.48 25.386,64.574C26.437,64.535 27.566,64.874 27.597,66.105C27.597,66.933 26.957,67.605 26.128,67.605L26.129,67.601ZM25.539,48.949C27.519,48.89 27.668,51.789 25.711,51.949C22.359,52.14 19.742,54.918 19.742,58.269C19.742,59.578 20.14,60.84 20.902,61.91C21.383,62.59 21.222,63.519 20.543,64C17.965,65.519 16.691,60.039 16.754,58.269C16.754,53.32 20.625,49.23 25.554,48.949L25.539,48.949Z" style="fill:rgb(54,83,143);fill-rule:nonzero;"/>
        <path d="M73.93,45.328C67.93,45.328 61.301,49.398 60.93,58.316C60.93,65.418 66.758,71.246 73.93,71.246C80.942,71.387 87.071,65.176 86.918,58.168C86.559,49.359 79.93,45.316 73.918,45.316L73.93,45.328ZM73.989,67.601L73.989,66.101L73.957,67.601C72.785,67.691 71.489,67.292 71.598,65.902C71.688,65.081 72.426,64.48 73.246,64.574C74.297,64.535 75.426,64.874 75.457,66.105C75.457,66.933 74.817,67.605 73.988,67.605L73.989,67.601ZM73.399,48.949C75.387,48.879 75.52,51.801 73.571,51.949C70.219,52.14 67.602,54.918 67.602,58.269C67.602,59.578 68,60.84 68.762,61.91C69.242,62.59 69.082,63.519 68.403,64C65.825,65.519 64.551,60.039 64.602,58.269C64.602,53.32 68.473,49.23 73.403,48.949L73.399,48.949Z" style="fill:rgb(54,83,143);fill-rule:nonzero;"/>
    </g>
</svg>
