<?xml version="1.0" encoding="UTF-8" standalone="no"?>
<!DOCTYPE svg PUBLIC "-//W3C//DTD SVG 1.1//EN" "http://www.w3.org/Graphics/SVG/1.1/DTD/svg11.dtd">
<svg width="100%" height="100%" viewBox="0 0 96 72" version="1.1" xmlns="http://www.w3.org/2000/svg" xmlns:xlink="http://www.w3.org/1999/xlink" xml:space="preserve" xmlns:serif="http://www.serif.com/" style="fill-rule:evenodd;clip-rule:evenodd;stroke-linejoin:round;stroke-miterlimit:2;">
    <g transform="matrix(1,0,0,1,-2,-12)">
        <path d="M77.98,58.141C79.234,58.141 80.253,59.161 80.253,60.414C80.253,61.672 79.234,62.688 77.98,62.688C76.722,62.688 75.707,61.668 75.707,60.414C75.707,59.161 76.726,58.141 77.98,58.141ZM79.023,36.184L72.179,24.485C72.019,24.212 71.75,24.044 71.457,24.001C64.164,22.993 57.09,22.489 50.027,22.489C42.964,22.489 35.89,22.993 28.597,24.001C28.261,24.047 27.991,24.255 27.847,24.532L20.987,36.259C20.804,35.525 20.557,34.669 20.233,33.72C20.139,33.349 19.835,33.052 19.436,32.981L12.179,31.7L12.179,31.704C11.78,31.634 11.366,31.814 11.147,32.181C9.53,34.927 9.917,38.802 9.917,38.814C9.944,39.157 10.151,39.478 10.487,39.638C12.815,40.735 14.331,41.47 15.28,41.931L15.12,42.056C14.558,42.493 14.128,43.025 13.839,43.622C13.546,44.224 13.397,44.884 13.397,45.591L13.397,63.907C13.397,65.145 13.901,66.266 14.714,67.079C15.526,67.891 16.651,68.395 17.886,68.395L82.097,68.395C83.335,68.395 84.456,67.891 85.269,67.079C86.081,66.266 86.585,65.141 86.585,63.907L86.597,45.591C86.597,44.888 86.444,44.224 86.155,43.618C85.866,43.025 85.437,42.497 84.874,42.056L84.714,41.931C85.663,41.466 87.179,40.735 89.507,39.638C89.843,39.482 90.05,39.157 90.077,38.814C90.077,38.802 90.464,34.931 88.847,32.181C88.632,31.814 88.214,31.634 87.816,31.704L87.816,31.7L80.554,32.981C80.155,33.052 79.851,33.349 79.757,33.72C79.444,34.634 79.206,35.466 79.023,36.185L79.023,36.184ZM86.597,68.586L86.597,73.66C86.597,74.719 86.164,75.68 85.468,76.375L85.468,76.379C84.773,77.074 83.808,77.508 82.75,77.508L75.793,77.508C74.738,77.508 73.777,77.074 73.078,76.379L73.074,76.379L73.07,76.375C72.371,75.676 71.941,74.715 71.941,73.66L71.941,70.395L82.109,70.395C83.785,70.395 85.386,69.746 86.597,68.586L86.597,68.586ZM28.062,70.395L28.062,73.66C28.062,74.715 27.629,75.676 26.933,76.375L26.929,76.379L26.925,76.379C26.226,77.078 25.265,77.508 24.211,77.508L17.254,77.508C16.195,77.508 15.23,77.074 14.535,76.379L14.535,76.375C13.836,75.676 13.406,74.715 13.406,73.66L13.406,68.586C14.613,69.746 16.218,70.395 17.898,70.395L28.062,70.395ZM70.105,66.399L29.894,66.399L29.894,63.117C29.894,59.75 32.648,56.996 36.015,56.996L63.988,56.996C67.356,56.996 70.109,59.75 70.109,63.117L70.105,66.399ZM29.093,46.039C30.488,46.387 31.558,47.219 32.234,48.485C32.597,49.168 32.89,49.762 33.105,50.215C33.179,50.368 33.167,50.536 33.078,50.68C32.988,50.825 32.839,50.903 32.671,50.903L26.488,50.903C24.206,50.903 22.281,49.395 21.734,47.18C21.585,46.575 21.476,45.977 21.41,45.387C21.394,45.239 21.441,45.102 21.546,44.993C21.652,44.887 21.788,44.836 21.937,44.852C24.57,45.118 26.956,45.512 29.093,46.039L29.093,46.039ZM66.894,50.219C67.109,49.766 67.402,49.172 67.765,48.489C68.441,47.219 69.511,46.387 70.906,46.043C73.043,45.512 75.429,45.118 78.066,44.86C78.215,44.844 78.351,44.895 78.457,45C78.562,45.11 78.609,45.243 78.593,45.395C78.527,45.981 78.418,46.579 78.269,47.188C77.722,49.403 75.797,50.911 73.515,50.911L67.332,50.911C67.16,50.911 67.015,50.829 66.925,50.688C66.832,50.54 66.82,50.372 66.894,50.219L66.894,50.219ZM77.811,38.043L22.259,38.043L29.357,25.91C36.365,24.961 43.197,24.488 50.033,24.488C56.873,24.488 63.701,24.965 70.713,25.91L77.811,38.043ZM22.02,58.141C23.278,58.141 24.294,59.161 24.294,60.415C24.294,61.673 23.274,62.688 22.02,62.688C20.766,62.688 19.747,61.669 19.747,60.415C19.747,59.161 20.762,58.141 22.02,58.141Z" style="fill:rgb(60,93,160);"/>
    </g>
</svg>
