<?xml version="1.0" encoding="UTF-8" standalone="no"?>
<!DOCTYPE svg PUBLIC "-//W3C//DTD SVG 1.1//EN" "http://www.w3.org/Graphics/SVG/1.1/DTD/svg11.dtd">
<svg width="100%" height="100%" viewBox="0 0 110 109" version="1.1" xmlns="http://www.w3.org/2000/svg" xmlns:xlink="http://www.w3.org/1999/xlink" xml:space="preserve" xmlns:serif="http://www.serif.com/" style="fill-rule:evenodd;clip-rule:evenodd;stroke-linejoin:round;stroke-miterlimit:2;">
    <g transform="matrix(1,0,0,1,5,5)">
        <path d="M85.957,44.273L95.637,44.273C98.043,44.273 100,42.316 100,39.914L100,15.371C100,12.968 98.043,11.011 95.637,11.011L85.957,11.011C83.555,11.011 81.598,12.968 81.598,15.371L81.598,17.261L77.769,17.261L77.766,7.804C79.898,7.789 81.625,6.054 81.625,3.921C81.625,1.781 79.883,0.035 77.742,0.035L3.887,0.035C1.743,0.035 0,1.777 0,3.921C0,6.054 1.727,7.789 3.856,7.804L3.856,49.757C1.727,49.773 0,51.511 0,53.644C0,55.777 1.727,57.515 3.856,57.531L3.856,97.625L1.172,97.621C0.524,97.621 0,98.144 0,98.793C0,99.441 0.524,99.964 1.172,99.964L98.828,99.964C100.375,99.964 100.379,97.621 98.828,97.621L77.766,97.621L77.766,57.527C79.899,57.511 81.626,55.773 81.626,53.64C81.626,51.507 79.899,49.769 77.766,49.757L77.766,38.023L81.594,38.023L81.594,39.914C81.598,42.316 83.555,44.273 85.958,44.273L85.957,44.273ZM11.367,33.054L14.23,33.054L14.23,44.21L11.367,44.21L11.367,33.054ZM16.578,33.054L19.441,33.054L19.441,44.21L16.578,44.21L16.578,33.054ZM19.441,24.511L16.578,24.511L16.578,13.355L19.441,13.355L19.441,24.511ZM14.234,24.511L11.367,24.511L11.367,13.355L14.23,13.355L14.234,24.511ZM28.308,33.054L31.171,33.054L31.171,44.21L28.308,44.21L28.308,33.054ZM33.515,33.054L36.375,33.054L36.375,44.21L33.511,44.21L33.515,33.054ZM36.375,24.511L33.511,24.511L33.511,13.355L36.375,13.355L36.375,24.511ZM31.171,24.511L28.308,24.511L28.308,13.355L31.171,13.355L31.171,24.511ZM45.245,33.054L48.109,33.054L48.109,44.21L45.245,44.21L45.245,33.054ZM50.452,33.054L53.316,33.054L53.316,44.21L50.452,44.21L50.452,33.054ZM53.316,24.511L50.452,24.511L50.452,13.355L53.316,13.355L53.316,24.511ZM48.109,24.511L45.245,24.511L45.245,13.355L48.109,13.355L48.109,24.511ZM62.187,33.054L65.05,33.054L65.05,44.21L62.187,44.21L62.187,33.054ZM67.39,33.054L70.253,33.054L70.253,44.21L67.39,44.21L67.39,33.054ZM70.253,24.511L67.39,24.511L67.39,13.355L70.253,13.355L70.253,24.511ZM65.046,24.511L62.183,24.511L62.183,13.355L65.046,13.355L65.046,24.511ZM77.765,25.074L81.593,25.074L81.593,30.21L77.765,30.21L77.765,25.074ZM83.941,15.37C83.941,14.257 84.847,13.355 85.957,13.355L95.636,13.355C96.75,13.355 97.656,14.257 97.656,15.37L97.656,39.913C97.656,41.023 96.75,41.929 95.636,41.929L85.957,41.929C84.843,41.929 83.941,41.023 83.941,39.913L83.941,15.37ZM81.597,19.605L81.597,22.73L77.769,22.73L77.769,19.605L81.597,19.605ZM2.343,3.921C2.343,3.069 3.035,2.378 3.886,2.378L77.741,2.378C78.589,2.378 79.28,3.069 79.28,3.921C79.28,4.768 78.589,5.46 77.741,5.46L3.886,5.46C3.035,5.46 2.343,4.768 2.343,3.921ZM22.652,63.847L22.652,86.495L18.672,86.495L18.672,63.847L22.652,63.847ZM16.328,86.495L12.347,86.495L12.347,63.847L16.328,63.847L16.328,86.495ZM35.848,72.843C36.379,70.593 38.403,68.913 40.813,68.913C43.223,68.913 45.246,70.593 45.778,72.843L35.848,72.843ZM46.684,63.644L34.938,63.644C34.293,63.644 33.766,63.12 33.766,62.472C33.766,61.827 34.293,61.3 34.938,61.3L46.684,61.3C47.332,61.3 47.856,61.827 47.856,62.472C47.856,63.12 47.332,63.644 46.684,63.644ZM31.145,97.621L31.145,75.187L39.641,75.187L39.641,97.621L31.145,97.621ZM41.985,97.62L41.985,75.186L50.481,75.186L50.481,97.62L41.985,97.62ZM69.274,63.847L69.274,86.495L65.293,86.495L65.297,63.847L69.274,63.847ZM62.954,86.495L58.973,86.495L58.973,63.847L62.954,63.847L62.954,86.495ZM6.2,94.441L28.802,94.441L28.802,97.62L6.2,97.62L6.2,94.441ZM52.825,97.62L52.825,94.441L75.423,94.441L75.423,97.62L52.825,97.62ZM79.282,53.643C79.282,54.495 78.59,55.186 77.743,55.186L3.888,55.186C3.04,55.186 2.345,54.495 2.345,53.643C2.345,52.796 3.036,52.104 3.888,52.104L77.743,52.104C78.59,52.1 79.282,52.792 79.282,53.643ZM77.766,35.678L77.766,32.549L81.594,32.549L81.594,35.678L77.766,35.678ZM85.813,38.885L85.813,16.397C85.813,15.749 86.336,15.225 86.985,15.225L94.614,15.225C95.262,15.225 95.786,15.749 95.786,16.397L95.786,38.881C95.786,39.53 95.262,40.053 94.614,40.053L86.985,40.053C86.336,40.057 85.813,39.534 85.813,38.885L85.813,38.885Z" style="fill:rgb(58,90,155);fill-rule:nonzero;"/>
    </g>
</svg>
