<?xml version="1.0" encoding="UTF-8" standalone="no"?>
<!DOCTYPE svg PUBLIC "-//W3C//DTD SVG 1.1//EN" "http://www.w3.org/Graphics/SVG/1.1/DTD/svg11.dtd">
<svg width="100%" height="100%" viewBox="0 0 197 114" version="1.1" xmlns="http://www.w3.org/2000/svg" xmlns:xlink="http://www.w3.org/1999/xlink" xml:space="preserve" xmlns:serif="http://www.serif.com/" style="fill-rule:evenodd;clip-rule:evenodd;stroke-miterlimit:10;">
    <g transform="matrix(0.230438,0,0,0.230438,-2.26239,-46.1558)">
        <g transform="matrix(1,0,0,1,388.628,256.298)">
            <path d="M0,0.009L0.032,0.041L0.032,-0.032L0,0.009Z" style="fill:rgb(59,90,155);fill-rule:nonzero;"/>
        </g>
        <g transform="matrix(1,0,0,1,567.452,304.069)">
            <path d="M0,120.407C0,130.307 -7.015,142.457 -15.589,147.407L-119.864,207.609C-128.438,212.559 -142.467,212.559 -151.041,207.609L-255.315,147.407C-263.889,142.457 -270.904,130.307 -270.904,120.407L-270.904,0.001C-270.904,-9.899 -263.889,-22.049 -255.315,-26.999L-151.041,-87.202C-142.467,-92.152 -128.438,-92.152 -119.864,-87.202L-15.589,-26.999C-7.015,-22.049 0,-9.899 0,0.001L0,120.407Z" style="fill:rgb(59,90,155);fill-rule:nonzero;"/>
        </g>
        <g transform="matrix(0.982706,0.185172,0.185172,-0.982706,549.733,419.341)">
            <path d="M0.392,-0.171L2.168,-0.171C2.192,1.392 2.02,2.96 1.77,4.51L0.023,4.187C0.253,2.749 0.415,1.298 0.392,-0.171" style="fill:white;fill-rule:nonzero;"/>
        </g>
        <g transform="matrix(1,0,0,1,548.175,422.366)">
            <path d="M0,3.5L1.64,4.183C1.931,3.464 2.235,2.75 2.466,2.007C2.725,1.274 2.961,0.533 3.147,-0.224L1.431,-0.683C1.256,0.032 1.032,0.734 0.785,1.43C0.568,2.135 0.276,2.815 0,3.5" style="fill:white;fill-rule:nonzero;"/>
        </g>
        <g transform="matrix(0.840355,0.542037,0.542037,-0.840355,544.621,430.455)">
            <path d="M1.088,-0.791L2.864,-0.791C2.851,0.76 2.773,2.309 2.585,3.847L0.82,3.637C1,2.17 1.074,0.689 1.088,-0.791" style="fill:white;fill-rule:nonzero;"/>
        </g>
        <g transform="matrix(1,0,0,1,541.042,434.728)">
            <path d="M0,2.168L1.286,3.395C1.827,2.836 2.321,2.235 2.84,1.657L4.271,-0.178L2.837,-1.227L1.474,0.52C0.981,1.068 0.512,1.64 0,2.168" style="fill:white;fill-rule:nonzero;"/>
        </g>
        <g transform="matrix(1,0,0,1,536.011,439.906)">
            <path d="M0,1.147L0.943,2.653L1.936,2.019L2.875,1.311C3.517,0.857 4.087,0.322 4.677,-0.189L3.483,-1.506C2.929,-1.026 2.393,-0.521 1.796,-0.1L0.922,0.56L0,1.147Z" style="fill:white;fill-rule:nonzero;"/>
        </g>
        <g transform="matrix(0.499771,0.866157,0.866157,-0.499771,531.08,442.177)">
            <rect x="1.525" y="-1.906" width="1.775" height="4.547" style="fill:white;"/>
        </g>
        <g transform="matrix(0.499771,0.866157,0.866157,-0.499771,525.216,445.562)">
            <rect x="1.525" y="-1.906" width="1.776" height="4.547" style="fill:white;"/>
        </g>
        <g transform="matrix(0.499771,0.866157,0.866157,-0.499771,519.35,448.948)">
            <rect x="1.526" y="-1.907" width="1.776" height="4.548" style="fill:white;"/>
        </g>
        <g transform="matrix(0.499771,0.866157,0.866157,-0.499771,513.485,452.334)">
            <rect x="1.526" y="-1.907" width="1.776" height="4.548" style="fill:white;"/>
        </g>
        <g transform="matrix(0.499771,0.866157,0.866157,-0.499771,507.621,455.72)">
            <rect x="1.526" y="-1.907" width="1.776" height="4.548" style="fill:white;"/>
        </g>
        <g transform="matrix(0.499771,0.866157,0.866157,-0.499771,501.756,459.107)">
            <rect x="1.525" y="-1.906" width="1.776" height="4.547" style="fill:white;"/>
        </g>
        <g transform="matrix(0.499771,0.866157,0.866157,-0.499771,495.891,462.492)">
            <rect x="1.526" y="-1.907" width="1.776" height="4.548" style="fill:white;"/>
        </g>
        <g transform="matrix(0.499771,0.866157,0.866157,-0.499771,490.025,465.88)">
            <rect x="1.525" y="-1.906" width="1.775" height="4.547" style="fill:white;"/>
        </g>
        <g transform="matrix(0.499771,0.866157,0.866157,-0.499771,484.161,469.265)">
            <rect x="1.525" y="-1.906" width="1.776" height="4.547" style="fill:white;"/>
        </g>
        <g transform="matrix(0.499771,0.866157,0.866157,-0.499771,478.295,472.651)">
            <rect x="1.526" y="-1.907" width="1.776" height="4.548" style="fill:white;"/>
        </g>
        <g transform="matrix(0.499771,0.866157,0.866157,-0.499771,472.43,476.037)">
            <rect x="1.525" y="-1.906" width="1.775" height="4.547" style="fill:white;"/>
        </g>
        <g transform="matrix(0.499771,0.866157,0.866157,-0.499771,466.566,479.423)">
            <rect x="1.526" y="-1.907" width="1.776" height="4.548" style="fill:white;"/>
        </g>
        <g transform="matrix(0.499771,0.866157,0.866157,-0.499771,460.701,482.81)">
            <rect x="1.525" y="-1.906" width="1.776" height="4.547" style="fill:white;"/>
        </g>
        <g transform="matrix(0.499771,0.866157,0.866157,-0.499771,454.836,486.195)">
            <rect x="1.526" y="-1.907" width="1.776" height="4.548" style="fill:white;"/>
        </g>
        <g transform="matrix(0.499771,0.866157,0.866157,-0.499771,448.97,489.582)">
            <rect x="1.525" y="-1.906" width="1.775" height="4.547" style="fill:white;"/>
        </g>
        <g transform="matrix(0.293176,0.956058,0.956058,-0.293176,443.86,492.237)">
            <path d="M1.693,-2.349L3.47,-2.349C3.441,-0.789 3.36,0.779 3.065,2.325L1.315,2.016C1.59,0.585 1.664,-0.881 1.693,-2.349" style="fill:white;fill-rule:nonzero;"/>
        </g>
        <g transform="matrix(0.0979431,0.995192,0.995192,-0.0979431,438.335,493.914)">
            <path d="M1.62,-2.855L3.397,-2.855C3.403,-1.304 3.291,0.246 3.113,1.791L1.351,1.564C1.519,0.098 1.626,-1.375 1.62,-2.855" style="fill:white;fill-rule:nonzero;"/>
        </g>
        <g transform="matrix(-0.0788055,0.99689,0.99689,0.0788055,432.365,494.725)">
            <path d="M1.396,-3.212L3.173,-3.212C3.187,-1.663 3.079,-0.113 2.901,1.426L1.136,1.216C1.307,-0.253 1.41,-1.734 1.396,-3.212" style="fill:white;fill-rule:nonzero;"/>
        </g>
        <g transform="matrix(1,0,0,1,422.569,497.389)">
            <path d="M0,-2.655L-0.481,-0.944C0.271,-0.743 1.021,-0.53 1.787,-0.396C2.547,-0.231 3.311,-0.092 4.082,0L4.328,-1.76C3.593,-1.847 2.867,-1.98 2.147,-2.136C1.418,-2.262 0.711,-2.466 0,-2.655" style="fill:white;fill-rule:nonzero;"/>
        </g>
        <g transform="matrix(1,0,0,1,416.547,495.746)">
            <path d="M0,-3.527L-0.888,-1.988L-0.605,-1.825C0.042,-1.49 0.681,-1.135 1.34,-0.825C2.014,-0.552 2.672,-0.232 3.358,0L3.968,-1.669C3.323,-1.886 2.714,-2.186 2.085,-2.438C1.473,-2.727 0.882,-3.056 0.28,-3.365L0,-3.527Z" style="fill:white;fill-rule:nonzero;"/>
        </g>
        <g transform="matrix(-0.499771,0.866157,0.866157,0.499771,414.621,490.372)">
            <rect x="0.636" y="-4.18" width="1.778" height="4.547" style="fill:white;"/>
        </g>
        <g transform="matrix(-0.499771,0.866157,0.866157,0.499771,408.755,486.984)">
            <rect x="0.636" y="-4.179" width="1.778" height="4.546" style="fill:white;"/>
        </g>
        <g transform="matrix(-0.499771,0.866157,0.866157,0.499771,402.89,483.599)">
            <rect x="0.636" y="-4.179" width="1.778" height="4.546" style="fill:white;"/>
        </g>
        <g transform="matrix(-0.499771,0.866157,0.866157,0.499771,397.025,480.213)">
            <rect x="0.636" y="-4.18" width="1.778" height="4.547" style="fill:white;"/>
        </g>
        <g transform="matrix(-0.499771,0.866157,0.866157,0.499771,391.161,476.827)">
            <rect x="0.636" y="-4.18" width="1.778" height="4.547" style="fill:white;"/>
        </g>
        <g transform="matrix(-0.499771,0.866157,0.866157,0.499771,385.296,473.441)">
            <rect x="0.636" y="-4.18" width="1.778" height="4.547" style="fill:white;"/>
        </g>
        <g transform="matrix(-0.499771,0.866157,0.866157,0.499771,379.43,470.054)">
            <rect x="0.636" y="-4.179" width="1.778" height="4.546" style="fill:white;"/>
        </g>
        <g transform="matrix(-0.499771,0.866157,0.866157,0.499771,373.566,466.669)">
            <rect x="0.636" y="-4.18" width="1.778" height="4.547" style="fill:white;"/>
        </g>
        <g transform="matrix(-0.499771,0.866157,0.866157,0.499771,367.7,463.281)">
            <rect x="0.636" y="-4.179" width="1.778" height="4.546" style="fill:white;"/>
        </g>
        <g transform="matrix(-0.499771,0.866157,0.866157,0.499771,361.836,459.896)">
            <rect x="0.636" y="-4.179" width="1.778" height="4.546" style="fill:white;"/>
        </g>
        <g transform="matrix(-0.499771,0.866157,0.866157,0.499771,355.971,456.51)">
            <rect x="0.636" y="-4.18" width="1.778" height="4.547" style="fill:white;"/>
        </g>
        <g transform="matrix(-0.499771,0.866157,0.866157,0.499771,350.106,453.124)">
            <rect x="0.636" y="-4.18" width="1.778" height="4.547" style="fill:white;"/>
        </g>
        <g transform="matrix(-0.499771,0.866157,0.866157,0.499771,344.241,449.738)">
            <rect x="0.636" y="-4.18" width="1.778" height="4.547" style="fill:white;"/>
        </g>
        <g transform="matrix(-0.499771,0.866157,0.866157,0.499771,338.375,446.351)">
            <rect x="0.636" y="-4.179" width="1.778" height="4.546" style="fill:white;"/>
        </g>
        <g transform="matrix(1,0,0,1,328.578,445.239)">
            <path d="M0,-3.811L-0.896,-2.277L-0.828,-2.236L3.045,0L3.933,-1.539L0.063,-3.773L0,-3.811Z" style="fill:white;fill-rule:nonzero;"/>
        </g>
        <g transform="matrix(-0.707388,0.706825,0.706825,0.707388,326.749,440.336)">
            <path d="M0.25,-4.408L2.027,-4.408C2.052,-2.851 1.905,-1.29 1.669,0.26L-0.085,-0.03C0.134,-1.471 0.275,-2.936 0.25,-4.408" style="fill:white;fill-rule:nonzero;"/>
        </g>
        <g transform="matrix(-0.830054,0.557684,0.557684,0.830054,321.709,436.243)">
            <path d="M-0.19,-4.624L1.587,-4.624C1.579,-3.074 1.505,-1.522 1.296,0.018L-0.466,-0.204C-0.269,-1.666 -0.197,-3.146 -0.19,-4.624" style="fill:white;fill-rule:nonzero;"/>
        </g>
        <g transform="matrix(1,0,0,1,316.094,431.366)">
            <path d="M0,-4.846L-1.626,-4.13C-1.291,-3.431 -0.977,-2.722 -0.622,-2.033C-0.245,-1.356 0.097,-0.659 0.504,0L2.034,-0.904C1.645,-1.533 1.319,-2.2 0.958,-2.845C0.62,-3.503 0.321,-4.18 0,-4.846" style="fill:white;fill-rule:nonzero;"/>
        </g>
        <g transform="matrix(-0.977712,0.209952,0.209952,0.977712,314.058,425.124)">
            <path d="M-1.011,-4.747L0.766,-4.747C0.775,-3.185 0.632,-1.633 0.435,-0.093L-1.324,-0.344C-1.138,-1.808 -1.002,-3.278 -1.011,-4.747" style="fill:white;fill-rule:nonzero;"/>
        </g>
        <g transform="matrix(1,0,0,1,313.469,418.384)">
            <path d="M0,-4.649L-1.777,-4.649C-1.774,-3.892 -1.791,-3.14 -1.743,-2.345L-1.689,-1.168L-1.546,0L0.216,-0.231L0.081,-1.317L0.033,-2.409C-0.013,-3.125 0.003,-3.891 0,-4.649" style="fill:white;fill-rule:nonzero;"/>
        </g>
        <g transform="matrix(-1,0,0,1,625.161,-54.2089)">
            <rect x="311.692" y="461.171" width="1.777" height="4.546" style="fill:white;"/>
        </g>
        <g transform="matrix(-1,0,0,1,625.161,-67.7519)">
            <rect x="311.692" y="467.942" width="1.777" height="4.547" style="fill:white;"/>
        </g>
        <g transform="matrix(-1,0,0,1,625.161,-81.2979)">
            <rect x="311.692" y="474.715" width="1.777" height="4.547" style="fill:white;"/>
        </g>
        <g transform="matrix(-1,0,0,1,625.161,-94.8409)">
            <rect x="311.692" y="481.487" width="1.777" height="4.546" style="fill:white;"/>
        </g>
        <g transform="matrix(-1,0,0,1,625.161,-108.386)">
            <rect x="311.692" y="488.259" width="1.777" height="4.547" style="fill:white;"/>
        </g>
        <g transform="matrix(-1,0,0,1,625.161,-121.932)">
            <rect x="311.692" y="495.032" width="1.777" height="4.547" style="fill:white;"/>
        </g>
        <g transform="matrix(-1,0,0,1,625.161,-135.474)">
            <rect x="311.692" y="501.803" width="1.777" height="4.547" style="fill:white;"/>
        </g>
        <g transform="matrix(-1,0,0,1,625.161,-149.021)">
            <rect x="311.692" y="508.577" width="1.777" height="4.546" style="fill:white;"/>
        </g>
        <g transform="matrix(-1,0,0,1,625.161,-162.564)">
            <rect x="311.692" y="515.348" width="1.777" height="4.547" style="fill:white;"/>
        </g>
        <g transform="matrix(-1,0,0,1,625.161,-176.11)">
            <rect x="311.692" y="522.121" width="1.777" height="4.547" style="fill:white;"/>
        </g>
        <g transform="matrix(-1,0,0,1,625.161,-189.653)">
            <rect x="311.692" y="528.893" width="1.777" height="4.546" style="fill:white;"/>
        </g>
        <g transform="matrix(-1,0,0,1,625.161,-203.198)">
            <rect x="311.692" y="535.665" width="1.777" height="4.547" style="fill:white;"/>
        </g>
        <g transform="matrix(-1,0,0,1,625.161,-216.742)">
            <rect x="311.692" y="542.437" width="1.777" height="4.547" style="fill:white;"/>
        </g>
        <g transform="matrix(-1,0,0,1,625.161,-230.286)">
            <rect x="311.692" y="549.209" width="1.777" height="4.547" style="fill:white;"/>
        </g>
        <g transform="matrix(-0.998599,-0.0529134,-0.0529134,0.998599,311.528,316.55)">
            <path d="M-1.756,-4.449L0.02,-4.449C0.036,-2.85 -0.112,-1.391 -0.171,0.138L-1.945,0.044C-1.887,-1.454 -1.737,-3.019 -1.756,-4.449" style="fill:white;fill-rule:nonzero;"/>
        </g>
        <g transform="matrix(1,0,0,1,314.694,309.548)">
            <path d="M0,-3.772L-1.699,-4.293C-1.911,-3.545 -2.117,-2.793 -2.303,-2.037C-2.442,-1.268 -2.638,-0.512 -2.728,0.267L-0.969,0.521C-0.887,-0.205 -0.699,-0.919 -0.571,-1.64C-0.394,-2.353 -0.2,-3.064 0,-3.772" style="fill:white;fill-rule:nonzero;"/>
        </g>
        <g transform="matrix(-0.884772,-0.466025,-0.466025,0.884772,313.194,301.901)">
            <path d="M-2.544,-3.837L-0.768,-3.837C-0.759,-2.287 -0.866,-0.739 -1.041,0.803L-2.804,0.588C-2.638,-0.88 -2.536,-2.358 -2.544,-3.837" style="fill:white;fill-rule:nonzero;"/>
        </g>
        <g transform="matrix(1,0,0,1,320.813,296.708)">
            <path d="M0,-2.558L-1.4,-3.652C-1.89,-3.05 -2.341,-2.42 -2.775,-1.777C-3.231,-1.149 -3.63,-0.485 -4.034,0.176L-2.512,1.094C-2.126,0.463 -1.746,-0.172 -1.31,-0.771C-0.897,-1.384 -0.467,-1.985 0,-2.558" style="fill:white;fill-rule:nonzero;"/>
        </g>
        <g transform="matrix(-0.640959,-0.767575,-0.767575,0.640959,321.017,289.093)">
            <path d="M-3.016,-3.128L-1.239,-3.128C-1.256,-1.566 -1.356,-0.006 -1.604,1.528L-3.361,1.266C-3.125,-0.191 -3.033,-1.662 -3.016,-3.128" style="fill:white;fill-rule:nonzero;"/>
        </g>
        <g transform="matrix(1,0,0,1,330.877,286.554)">
            <path d="M0,-0.766L-0.888,-2.305L-3.127,-1.012L-4.844,0.081L-3.828,1.539L-2.236,0.525L0,-0.766Z" style="fill:white;fill-rule:nonzero;"/>
        </g>
        <g transform="matrix(-0.499771,-0.866157,-0.866157,0.499771,332.804,280.863)">
            <rect x="-3.301" y="-2.641" width="1.775" height="4.547" style="fill:white;"/>
        </g>
        <g transform="matrix(-0.499771,-0.866157,-0.866157,0.499771,338.67,277.476)">
            <rect x="-3.301" y="-2.64" width="1.776" height="4.547" style="fill:white;"/>
        </g>
        <g transform="matrix(-0.499771,-0.866157,-0.866157,0.499771,344.533,274.09)">
            <rect x="-3.301" y="-2.642" width="1.776" height="4.548" style="fill:white;"/>
        </g>
        <g transform="matrix(-0.499771,-0.866157,-0.866157,0.499771,350.4,270.703)">
            <rect x="-3.301" y="-2.64" width="1.775" height="4.547" style="fill:white;"/>
        </g>
        <g transform="matrix(-0.499771,-0.866157,-0.866157,0.499771,356.264,267.318)">
            <rect x="-3.301" y="-2.64" width="1.776" height="4.547" style="fill:white;"/>
        </g>
        <g transform="matrix(-0.499771,-0.866157,-0.866157,0.499771,362.129,263.931)">
            <rect x="-3.301" y="-2.642" width="1.776" height="4.548" style="fill:white;"/>
        </g>
        <g transform="matrix(-0.499771,-0.866157,-0.866157,0.499771,367.993,260.545)">
            <rect x="-3.301" y="-2.642" width="1.776" height="4.548" style="fill:white;"/>
        </g>
        <g transform="matrix(-0.499771,-0.866157,-0.866157,0.499771,373.858,257.159)">
            <rect x="-3.301" y="-2.642" width="1.776" height="4.548" style="fill:white;"/>
        </g>
        <g transform="matrix(-0.499771,-0.866157,-0.866157,0.499771,379.724,253.773)">
            <rect x="-3.301" y="-2.64" width="1.776" height="4.547" style="fill:white;"/>
        </g>
        <g transform="matrix(-0.499771,-0.866157,-0.866157,0.499771,385.588,250.387)">
            <rect x="-3.301" y="-2.642" width="1.776" height="4.548" style="fill:white;"/>
        </g>
        <g transform="matrix(-0.499771,-0.866157,-0.866157,0.499771,391.454,247.001)">
            <rect x="-3.301" y="-2.641" width="1.775" height="4.547" style="fill:white;"/>
        </g>
        <g transform="matrix(-0.499771,-0.866157,-0.866157,0.499771,397.318,243.615)">
            <rect x="-3.301" y="-2.64" width="1.776" height="4.547" style="fill:white;"/>
        </g>
        <g transform="matrix(-0.499771,-0.866157,-0.866157,0.499771,403.184,240.229)">
            <rect x="-3.301" y="-2.641" width="1.775" height="4.547" style="fill:white;"/>
        </g>
        <g transform="matrix(-0.499771,-0.866157,-0.866157,0.499771,409.048,236.842)">
            <rect x="-3.301" y="-2.642" width="1.776" height="4.548" style="fill:white;"/>
        </g>
        <g transform="matrix(1,0,0,1,418.831,235.649)">
            <path d="M0,-0.496L-0.731,-2.116C-1.455,-1.813 -2.132,-1.407 -2.834,-1.057L-4.807,0.082L-3.918,1.62L-1.953,0.486C-1.299,0.163 -0.674,-0.216 0,-0.496" style="fill:white;fill-rule:nonzero;"/>
        </g>
        <g transform="matrix(1,0,0,1,425.084,232.617)">
            <path d="M0,0.6L-0.34,-1.144C-1.104,-1.001 -1.863,-0.837 -2.612,-0.62C-3.369,-0.438 -4.11,-0.192 -4.847,0.068L-4.257,1.744C-3.565,1.5 -2.869,1.268 -2.152,1.096C-1.446,0.89 -0.726,0.736 0,0.6" style="fill:white;fill-rule:nonzero;"/>
        </g>
        <g transform="matrix(-0.00956625,-0.999954,-0.999954,0.00956625,430.03,229.493)">
            <path d="M-3.082,-1.586L-1.305,-1.586C-1.315,-0.037 -1.39,1.513 -1.586,3.053L-3.35,2.84C-3.164,1.374 -3.092,-0.107 -3.082,-1.586" style="fill:white;fill-rule:nonzero;"/>
        </g>
        <g transform="matrix(1,0,0,1,438.224,230.825)">
            <path d="M0,2.253L0.303,0.502L-2.002,0.178C-2.775,0.12 -3.546,0.036 -4.32,0L-4.406,1.775C-3.667,1.809 -2.932,1.89 -2.194,1.945L0,2.253Z" style="fill:white;fill-rule:nonzero;"/>
        </g>
        <g transform="matrix(0.384456,-0.923144,-0.923144,-0.384456,444.872,232.316)">
            <path d="M-2.501,-0.664L-0.725,-0.664C-0.706,0.903 -0.875,2.458 -1.099,3.997L-2.853,3.718C-2.643,2.263 -2.483,0.796 -2.501,-0.664" style="fill:white;fill-rule:nonzero;"/>
        </g>
        <g transform="matrix(1,0,0,1,450.385,234.221)">
            <path d="M0,3.798L0.888,2.259L-2.329,0.402L-3.094,0L-3.925,1.57L-3.214,1.942L0,3.798Z" style="fill:white;fill-rule:nonzero;"/>
        </g>
        <g transform="matrix(0.499771,-0.866157,-0.866157,-0.499771,457.139,239.131)">
            <rect x="-2.414" y="-0.367" width="1.778" height="4.547" style="fill:white;"/>
        </g>
        <g transform="matrix(0.499771,-0.866157,-0.866157,-0.499771,463.003,242.517)">
            <rect x="-2.414" y="-0.367" width="1.778" height="4.547" style="fill:white;"/>
        </g>
        <g transform="matrix(0.499771,-0.866157,-0.866157,-0.499771,468.868,245.904)">
            <rect x="-2.413" y="-0.367" width="1.778" height="4.546" style="fill:white;"/>
        </g>
        <g transform="matrix(0.499771,-0.866157,-0.866157,-0.499771,474.733,249.289)">
            <rect x="-2.414" y="-0.367" width="1.778" height="4.547" style="fill:white;"/>
        </g>
        <g transform="matrix(0.499771,-0.866157,-0.866157,-0.499771,480.599,252.676)">
            <rect x="-2.414" y="-0.367" width="1.778" height="4.546" style="fill:white;"/>
        </g>
        <g transform="matrix(0.499771,-0.866157,-0.866157,-0.499771,486.462,256.062)">
            <rect x="-2.413" y="-0.367" width="1.778" height="4.546" style="fill:white;"/>
        </g>
        <g transform="matrix(0.499771,-0.866157,-0.866157,-0.499771,492.329,259.448)">
            <rect x="-2.414" y="-0.367" width="1.778" height="4.547" style="fill:white;"/>
        </g>
        <g transform="matrix(0.499771,-0.866157,-0.866157,-0.499771,498.194,262.834)">
            <rect x="-2.414" y="-0.367" width="1.778" height="4.547" style="fill:white;"/>
        </g>
        <g transform="matrix(0.499771,-0.866157,-0.866157,-0.499771,504.058,266.22)">
            <rect x="-2.414" y="-0.367" width="1.777" height="4.547" style="fill:white;"/>
        </g>
        <g transform="matrix(0.499771,-0.866157,-0.866157,-0.499771,509.923,269.606)">
            <rect x="-2.413" y="-0.367" width="1.778" height="4.546" style="fill:white;"/>
        </g>
        <g transform="matrix(0.499771,-0.866157,-0.866157,-0.499771,515.788,272.992)">
            <rect x="-2.414" y="-0.367" width="1.778" height="4.547" style="fill:white;"/>
        </g>
        <g transform="matrix(0.499771,-0.866157,-0.866157,-0.499771,521.653,276.379)">
            <rect x="-2.414" y="-0.367" width="1.778" height="4.546" style="fill:white;"/>
        </g>
        <g transform="matrix(0.499771,-0.866157,-0.866157,-0.499771,527.517,279.764)">
            <rect x="-2.413" y="-0.367" width="1.778" height="4.546" style="fill:white;"/>
        </g>
        <g transform="matrix(0.499771,-0.866157,-0.866157,-0.499771,533.383,283.151)">
            <rect x="-2.414" y="-0.367" width="1.778" height="4.547" style="fill:white;"/>
        </g>
        <g transform="matrix(1,0,0,1,538.104,284.999)">
            <path d="M0,3.965L1.101,2.57C0.621,2.216 0.157,1.838 -0.338,1.504L-1.854,0.543L-2.794,0L-3.683,1.539L-2.745,2.08L-1.34,2.972C-0.879,3.282 -0.448,3.636 0,3.965" style="fill:white;fill-rule:nonzero;"/>
        </g>
        <g transform="matrix(1,0,0,1,542.751,289.057)">
            <path d="M0,4.534L1.378,3.412C0.893,2.806 0.359,2.239 -0.149,1.651C-0.693,1.095 -1.238,0.538 -1.802,0L-3.011,1.303C-2.48,1.81 -1.964,2.336 -1.449,2.862C-0.968,3.421 -0.461,3.957 0,4.534" style="fill:white;fill-rule:nonzero;"/>
        </g>
        <g transform="matrix(0.875693,-0.482869,-0.482869,-0.875693,547.536,298.577)">
            <path d="M-1.206,0.103L0.57,0.103C0.581,1.651 0.476,3.2 0.301,4.74L-1.463,4.53C-1.297,3.061 -1.196,1.583 -1.206,0.103" style="fill:white;fill-rule:nonzero;"/>
        </g>
        <g transform="matrix(1,0,0,1,549.08,300.234)">
            <path d="M0,4.872L1.687,4.314C1.449,3.574 1.189,2.842 0.883,2.129C0.606,1.403 0.285,0.698 -0.055,0L-1.658,0.766C-1.334,1.431 -1.027,2.104 -0.764,2.795C-0.472,3.474 -0.226,4.17 0,4.872" style="fill:white;fill-rule:nonzero;"/>
        </g>
        <g transform="matrix(0.996526,-0.0832783,-0.0832783,-0.996526,550.653,311.537)">
            <path d="M-0.197,0.05L1.581,0.05C1.544,1.62 1.432,3.183 1.156,4.717L-0.596,4.422C-0.335,2.973 -0.233,1.507 -0.197,0.05" style="fill:white;fill-rule:nonzero;"/>
        </g>
        <g transform="matrix(1,0,0,1,0,-240.834)">
            <rect x="550.531" y="554.483" width="1.777" height="4.547" style="fill:white;"/>
        </g>
        <g transform="matrix(1,0,0,1,0,-227.288)">
            <rect x="550.531" y="547.71" width="1.777" height="4.547" style="fill:white;"/>
        </g>
        <g transform="matrix(1,0,0,1,0,-213.744)">
            <rect x="550.531" y="540.938" width="1.777" height="4.547" style="fill:white;"/>
        </g>
        <g transform="matrix(1,0,0,1,0,-200.2)">
            <rect x="550.531" y="534.166" width="1.777" height="4.547" style="fill:white;"/>
        </g>
        <g transform="matrix(1,0,0,1,0,-186.653)">
            <rect x="550.531" y="527.393" width="1.777" height="4.546" style="fill:white;"/>
        </g>
        <g transform="matrix(1,0,0,1,0,-173.11)">
            <rect x="550.531" y="520.621" width="1.777" height="4.547" style="fill:white;"/>
        </g>
        <g transform="matrix(1,0,0,1,0,-159.564)">
            <rect x="550.531" y="513.848" width="1.777" height="4.547" style="fill:white;"/>
        </g>
        <g transform="matrix(1,0,0,1,0,-146.023)">
            <rect x="550.531" y="507.078" width="1.777" height="4.546" style="fill:white;"/>
        </g>
        <g transform="matrix(1,0,0,1,0,-132.476)">
            <rect x="550.531" y="500.304" width="1.777" height="4.547" style="fill:white;"/>
        </g>
        <g transform="matrix(1,0,0,1,0,-118.932)">
            <rect x="550.531" y="493.532" width="1.777" height="4.547" style="fill:white;"/>
        </g>
        <g transform="matrix(1,0,0,1,0,-105.388)">
            <rect x="550.531" y="486.76" width="1.777" height="4.547" style="fill:white;"/>
        </g>
        <g transform="matrix(1,0,0,1,0,-91.8429)">
            <rect x="550.531" y="479.988" width="1.777" height="4.546" style="fill:white;"/>
        </g>
        <g transform="matrix(1,0,0,1,0,-78.2979)">
            <rect x="550.531" y="473.215" width="1.777" height="4.547" style="fill:white;"/>
        </g>
        <g transform="matrix(1,0,0,1,0,-64.7519)">
            <rect x="550.531" y="466.442" width="1.777" height="4.547" style="fill:white;"/>
        </g>
        <g transform="matrix(1,0,0,1,0,-51.2109)">
            <rect x="550.531" y="459.672" width="1.777" height="4.546" style="fill:white;"/>
        </g>
        <g transform="matrix(1,0,0,1,420.887,289.385)">
            <path d="M0,123.773L-28.739,123.773L-41.497,79.14L-63.58,98.026L-63.499,123.773L-95.086,123.773L-63.921,10.686C-62.181,4.374 -56.44,0 -49.892,0L-34.113,0L0,123.773Z" style="fill:white;fill-rule:nonzero;"/>
        </g>
        <g transform="matrix(1,0,0,1,428.168,310.836)">
            <path d="M0,102.925L0,30.387C0,23.261 5.777,17.485 12.903,17.485L20.625,17.485L20.625,102.925L0,102.925ZM0,13.509L0,6.736C0,3.016 3.016,0 6.736,0L20.625,0L20.625,6.773C20.625,10.493 17.609,13.509 13.889,13.509L0,13.509Z" style="fill:white;fill-rule:nonzero;"/>
        </g>
        <g transform="matrix(1,0,0,1,532.204,413.59)">
            <path d="M0,-49.346L0,-35.66C0,-15.646 -16.225,0.579 -36.239,0.579L-45.884,0.579C-49.136,0.579 -52.307,0.096 -55.359,-0.86L-55.359,36.233L-63.081,36.233C-70.207,36.233 -75.984,30.457 -75.984,23.331L-75.984,-85.27L-60.019,-85.27L-57.669,-82.889C-53.555,-84.652 -49.086,-85.579 -44.619,-85.579L-36.233,-85.579C-16.222,-85.579 0,-69.357 0,-49.346" style="fill:white;fill-rule:nonzero;"/>
        </g>
        <g transform="matrix(1,0,0,1,383.549,397.317)">
            <path d="M0,-66.292C-0.437,-66.651 -1.265,-66.988 -0.948,-67.497C-0.547,-68.139 -0.001,-68.818 0.783,-69.186C1.018,-69.296 1.153,-69.174 1.252,-68.989C1.732,-68.098 2.143,-67.185 2.245,-66.035C2.372,-65.725 1.709,-65.605 1.787,-65.156C1.815,-64.994 1.556,-64.654 1.388,-64.629C1.084,-64.584 1.005,-64.904 0.869,-65.146C0.638,-65.56 0.366,-65.992 0,-66.292ZM-3.425,-76.035C-3.594,-76.19 -3.602,-76.445 -3.443,-76.605L-1.775,-78.27C-1.615,-78.43 -1.347,-78.435 -1.177,-78.281L2.554,-74.887C2.725,-74.733 2.732,-74.478 2.572,-74.317L0.905,-72.653C0.745,-72.492 0.477,-72.487 0.307,-72.642L-3.425,-76.035ZM21.498,9.928C20.915,9.004 19.996,9.702 19.314,10.009C16.846,11.118 14.52,10.584 12.153,9.623C11.559,9.381 11.57,9.063 11.82,8.82C13.05,7.618 12.28,6.745 11.379,5.824C10.434,4.858 9.431,3.805 9.319,2.484C9.006,-1.227 8.748,-4.929 7.116,-8.403C7.061,-8.523 7.002,-8.689 7.045,-8.795C7.549,-10.023 6.938,-11.119 6.563,-12.233C5.656,-14.925 4.379,-17.5 3.755,-20.284C3.377,-21.973 3.597,-23.729 2.966,-25.394C2.169,-27.497 0.92,-29.398 0,-31.435C-0.856,-33.331 -2.844,-34.999 -1.528,-37.458C-0.503,-39.373 -0.817,-41.594 -0.379,-43.66C0.257,-46.668 0.305,-49.793 0.617,-53.004C1.951,-52.046 3.263,-51.138 4.535,-50.179C5.448,-49.49 6.455,-49.149 7.604,-49.069C8.287,-49.022 8.76,-49.41 8.869,-49.857C9.36,-51.882 9.893,-53.889 9.234,-56.035C8.633,-57.987 7.787,-59.839 7.036,-61.73C6.535,-62.994 5.601,-64.251 5.592,-65.509C5.579,-67.292 5.455,-69.127 5.759,-70.892C6.044,-72.546 5.775,-73.876 4.448,-75.039C4.147,-75.303 3.487,-75.558 3.971,-76.307C4.395,-76.964 4.867,-76.688 5.345,-76.657C6.205,-76.6 7.06,-76.437 7.919,-76.42C8.71,-76.404 9.318,-76.837 9.4,-77.587C9.492,-78.438 8.683,-77.997 8.294,-78.11C6.06,-78.764 3.69,-79.152 2.457,-81.438C2.206,-81.902 1.733,-82.253 1.408,-82.686C0.793,-83.506 -0.056,-83.826 -1.069,-84C-4.877,-84.656 -7.813,-82.077 -9.063,-78.939C-9.435,-78.005 -9.739,-76.674 -8.873,-75.672C-8.225,-74.922 -7.74,-74.385 -8.661,-73.451C-9.101,-73.006 -8.463,-72.337 -7.904,-72.155C-7.475,-72.015 -7.065,-71.87 -7.105,-71.486C-7.151,-71.06 -7.634,-70.735 -8.052,-70.69C-9.936,-70.485 -11.303,-69.249 -12.948,-68.575C-13.465,-68.363 -14.072,-67.571 -14.45,-68.091C-14.92,-68.738 -15.702,-69.604 -14.87,-70.573C-14.606,-70.88 -14.454,-71.273 -14.213,-71.602C-13.986,-71.912 -13.955,-72.188 -14.21,-72.497C-15.089,-73.561 -15.98,-74.284 -17.649,-74.063C-19.613,-73.804 -21.417,-73.216 -23.146,-72.427C-24.888,-71.633 -26.681,-70.82 -28.058,-69.5C-30.059,-67.582 -30.597,-65.021 -31.228,-62.481C-31.717,-60.509 -32.076,-58.509 -32.623,-56.542C-33.131,-54.721 -33.089,-52.74 -33.154,-50.824C-33.214,-49.075 -32.611,-47.42 -33.342,-45.551C-34.375,-42.905 -35.448,-40.17 -34.636,-37.105C-34.117,-35.147 -35.066,-33.328 -36.463,-31.811C-36.64,-31.619 -37.194,-31.531 -36.689,-31.108C-36.38,-30.849 -36.088,-30.798 -35.758,-31.034C-35.169,-31.455 -34.72,-31.957 -34.368,-32.602C-33.418,-34.348 -33.652,-36.393 -32.699,-38.408C-32.704,-37.197 -32.481,-36.257 -32.363,-35.325C-32.143,-33.57 -30.973,-31.997 -31.476,-30.053C-31.648,-29.385 -31.573,-28.252 -31.028,-27.407C-30.847,-27.128 -30.814,-26.776 -30.379,-26.853C-29.704,-26.971 -30.245,-27.297 -30.237,-27.558C-30.219,-28.123 -30.676,-28.621 -30.447,-29.191C-30.973,-29.831 -30.596,-30.493 -30.458,-31.123C-30.429,-31.252 -30.138,-31.235 -30.021,-31.027C-30.02,-31.026 -30.019,-31.025 -30.018,-31.024C-29.997,-30.986 -29.983,-30.942 -29.976,-30.892C-29.109,-29.942 -27.803,-30.239 -26.588,-29.879C-26.921,-29.416 -27.231,-29.072 -27.434,-28.678C-27.575,-28.403 -27.69,-27.818 -27.615,-27.784C-27.037,-27.525 -26.941,-27.886 -26.802,-28.362C-26.695,-28.727 -26.297,-29.02 -26.006,-29.325C-25.541,-29.812 -22.487,-30.487 -22.026,-30.109C-21.178,-29.412 -21.282,-28.419 -21.447,-27.501C-21.803,-25.526 -22.407,-23.577 -22.578,-21.588C-22.849,-18.434 -23.916,-15.587 -25.756,-13.04C-28.502,-9.239 -30.367,-5.12 -31.423,-0.605C-31.956,1.673 -32.476,4.015 -33.99,5.959C-34.814,7.017 -34.808,8.214 -34.628,9.427C-34.475,10.454 -34.449,11.365 -34.921,12.408C-35.29,13.223 -36.042,14.178 -35.42,15.279C-34.537,16.844 -32.212,17.516 -30.741,16.428C-29.898,15.804 -29.437,16.12 -28.936,16.677C-27.925,17.801 -26.58,18.28 -25.145,18.148C-24.09,18.05 -23.07,18.069 -22.056,18.229C-21.205,18.364 -20.385,18.2 -19.603,18.065C-18.837,17.933 -17.715,17.674 -17.814,16.669C-17.903,15.76 -18.76,14.957 -19.709,14.994C-21.87,15.08 -22.977,13.783 -24.022,12.365C-24.503,11.711 -25.765,11.102 -24.465,10.06C-24.282,9.914 -24.373,9.311 -24.509,8.981C-24.887,8.069 -24.793,7.16 -24.718,6.228C-24.539,4.037 -23.876,1.954 -23.16,-0.103C-22.072,-3.23 -20.872,-6.27 -17.854,-8.335C-16.575,-9.211 -15.812,-10.614 -15.221,-12.129C-14.359,-14.339 -13.727,-16.666 -12.227,-18.629C-10.708,-20.615 -10.618,-20.627 -9.197,-18.623C-8.81,-18.075 -8.56,-17.501 -8.283,-16.915C-7.636,-15.549 -6.862,-14.277 -5.54,-13.342C-4.878,-12.875 -4.57,-12.093 -4.346,-11.317C-4.157,-10.662 -3.849,-10.053 -3.533,-9.437C-2.182,-6.801 -0.356,-4.416 0.859,-1.705C3.05,3.184 4.145,8.329 5.173,13.498C5.263,13.949 5.358,14.382 5.381,14.853C5.434,15.913 5.369,17.145 6.663,17.671C7.791,18.127 8.824,17.648 9.733,17.036C10.257,16.682 10.8,16.116 11.383,16.223C12.685,16.463 13.884,15.99 15.132,16.001C17.964,16.028 19.666,14.339 21.2,12.431C21.788,11.699 21.972,10.677 21.498,9.928Z" style="fill:none;fill-rule:nonzero;stroke:white;stroke-width:1.04px;"/>
        </g>
        <g transform="matrix(1,0,0,1,383.549,397.317)">
            <path d="M0,-66.292C-0.437,-66.651 -1.265,-66.988 -0.948,-67.497C-0.547,-68.139 -0.001,-68.818 0.783,-69.186C1.018,-69.296 1.153,-69.174 1.252,-68.989C1.732,-68.098 2.143,-67.185 2.245,-66.035C2.372,-65.725 1.709,-65.605 1.787,-65.156C1.815,-64.994 1.556,-64.654 1.388,-64.629C1.084,-64.584 1.005,-64.904 0.869,-65.146C0.638,-65.56 0.366,-65.992 0,-66.292M-3.425,-76.035C-3.594,-76.19 -3.602,-76.445 -3.443,-76.605L-1.775,-78.27C-1.615,-78.43 -1.347,-78.435 -1.177,-78.281L2.554,-74.887C2.725,-74.733 2.732,-74.478 2.572,-74.317L0.905,-72.653C0.745,-72.492 0.477,-72.487 0.307,-72.642L-3.425,-76.035ZM21.498,9.928C20.915,9.004 19.996,9.702 19.314,10.009C16.846,11.118 14.52,10.584 12.153,9.623C11.559,9.381 11.57,9.063 11.82,8.82C13.05,7.618 12.28,6.745 11.379,5.824C10.434,4.858 9.431,3.805 9.319,2.484C9.006,-1.227 8.748,-4.929 7.116,-8.403C7.061,-8.523 7.002,-8.689 7.045,-8.795C7.549,-10.023 6.938,-11.119 6.563,-12.233C5.656,-14.925 4.379,-17.5 3.755,-20.284C3.377,-21.973 3.597,-23.729 2.966,-25.394C2.169,-27.497 0.92,-29.398 0,-31.435C-0.856,-33.331 -2.844,-34.999 -1.528,-37.458C-0.503,-39.373 -0.817,-41.594 -0.379,-43.66C0.257,-46.668 0.305,-49.793 0.617,-53.004C1.951,-52.046 3.263,-51.138 4.535,-50.179C5.448,-49.49 6.455,-49.149 7.604,-49.069C8.287,-49.022 8.76,-49.41 8.869,-49.857C9.36,-51.882 9.893,-53.889 9.234,-56.035C8.633,-57.987 7.787,-59.839 7.036,-61.73C6.535,-62.994 5.601,-64.251 5.592,-65.509C5.579,-67.292 5.455,-69.127 5.759,-70.892C6.044,-72.546 5.775,-73.876 4.448,-75.039C4.147,-75.303 3.487,-75.558 3.971,-76.307C4.395,-76.964 4.867,-76.688 5.345,-76.657C6.205,-76.6 7.06,-76.437 7.919,-76.42C8.71,-76.404 9.318,-76.837 9.4,-77.587C9.492,-78.438 8.683,-77.997 8.294,-78.11C6.06,-78.764 3.69,-79.152 2.457,-81.438C2.206,-81.902 1.733,-82.253 1.408,-82.686C0.793,-83.506 -0.056,-83.826 -1.069,-84C-4.877,-84.656 -7.813,-82.077 -9.063,-78.939C-9.435,-78.005 -9.739,-76.674 -8.873,-75.672C-8.225,-74.922 -7.74,-74.385 -8.661,-73.451C-9.101,-73.006 -8.463,-72.337 -7.904,-72.155C-7.475,-72.015 -7.065,-71.87 -7.105,-71.486C-7.151,-71.06 -7.634,-70.735 -8.052,-70.69C-9.936,-70.485 -11.303,-69.249 -12.948,-68.575C-13.465,-68.363 -14.072,-67.571 -14.45,-68.091C-14.92,-68.738 -15.702,-69.604 -14.87,-70.573C-14.606,-70.88 -14.454,-71.273 -14.213,-71.602C-13.986,-71.912 -13.955,-72.188 -14.21,-72.497C-15.089,-73.561 -15.98,-74.284 -17.649,-74.063C-19.613,-73.804 -21.417,-73.216 -23.146,-72.427C-24.888,-71.633 -26.681,-70.82 -28.058,-69.5C-30.059,-67.582 -30.597,-65.021 -31.228,-62.481C-31.717,-60.509 -32.076,-58.509 -32.623,-56.542C-33.131,-54.721 -33.089,-52.74 -33.154,-50.824C-33.214,-49.075 -32.611,-47.42 -33.342,-45.551C-34.375,-42.905 -35.448,-40.17 -34.636,-37.105C-34.117,-35.147 -35.066,-33.328 -36.463,-31.811C-36.64,-31.619 -37.194,-31.531 -36.689,-31.108C-36.38,-30.849 -36.088,-30.798 -35.758,-31.034C-35.169,-31.455 -34.72,-31.957 -34.368,-32.602C-33.418,-34.348 -33.652,-36.393 -32.699,-38.408C-32.704,-37.197 -32.481,-36.257 -32.363,-35.325C-32.143,-33.57 -30.973,-31.997 -31.476,-30.053C-31.648,-29.385 -31.573,-28.252 -31.028,-27.407C-30.847,-27.128 -30.814,-26.776 -30.379,-26.853C-29.704,-26.971 -30.245,-27.297 -30.237,-27.558C-30.219,-28.123 -30.676,-28.621 -30.447,-29.191C-30.973,-29.831 -30.596,-30.493 -30.458,-31.123C-30.429,-31.252 -30.138,-31.235 -30.021,-31.027C-30.02,-31.026 -30.019,-31.025 -30.018,-31.024C-29.997,-30.986 -29.983,-30.942 -29.976,-30.892C-29.109,-29.942 -27.803,-30.239 -26.588,-29.879C-26.921,-29.416 -27.231,-29.072 -27.434,-28.678C-27.575,-28.403 -27.69,-27.818 -27.615,-27.784C-27.037,-27.525 -26.941,-27.886 -26.802,-28.362C-26.695,-28.727 -26.297,-29.02 -26.006,-29.325C-25.541,-29.812 -22.487,-30.487 -22.026,-30.109C-21.178,-29.412 -21.282,-28.419 -21.447,-27.501C-21.803,-25.526 -22.407,-23.577 -22.578,-21.588C-22.849,-18.434 -23.916,-15.587 -25.756,-13.04C-28.502,-9.239 -30.367,-5.12 -31.423,-0.605C-31.956,1.673 -32.476,4.015 -33.99,5.959C-34.814,7.017 -34.808,8.214 -34.628,9.427C-34.475,10.454 -34.449,11.365 -34.921,12.408C-35.29,13.223 -36.042,14.178 -35.42,15.279C-34.537,16.844 -32.212,17.516 -30.741,16.428C-29.898,15.804 -29.437,16.12 -28.936,16.677C-27.925,17.801 -26.58,18.28 -25.145,18.148C-24.09,18.05 -23.07,18.069 -22.056,18.229C-21.205,18.364 -20.385,18.2 -19.603,18.065C-18.837,17.933 -17.715,17.674 -17.814,16.669C-17.903,15.76 -18.76,14.957 -19.709,14.994C-21.87,15.08 -22.977,13.783 -24.022,12.365C-24.503,11.711 -25.765,11.102 -24.465,10.06C-24.282,9.914 -24.373,9.311 -24.509,8.981C-24.887,8.069 -24.793,7.16 -24.718,6.228C-24.539,4.037 -23.876,1.954 -23.16,-0.103C-22.072,-3.23 -20.872,-6.27 -17.854,-8.335C-16.575,-9.211 -15.812,-10.614 -15.221,-12.129C-14.359,-14.339 -13.727,-16.666 -12.227,-18.629C-10.708,-20.615 -10.618,-20.627 -9.197,-18.623C-8.81,-18.075 -8.56,-17.501 -8.283,-16.915C-7.636,-15.549 -6.862,-14.277 -5.54,-13.342C-4.878,-12.875 -4.57,-12.093 -4.346,-11.317C-4.157,-10.662 -3.849,-10.053 -3.533,-9.437C-2.182,-6.801 -0.356,-4.416 0.859,-1.705C3.05,3.184 4.145,8.329 5.173,13.498C5.263,13.949 5.358,14.382 5.381,14.853C5.434,15.913 5.369,17.145 6.663,17.671C7.791,18.127 8.824,17.648 9.733,17.036C10.257,16.682 10.8,16.116 11.383,16.223C12.685,16.463 13.884,15.99 15.132,16.001C17.964,16.028 19.666,14.339 21.2,12.431C21.788,11.699 21.972,10.677 21.498,9.928" style="fill:rgb(59,90,155);"/>
        </g>
        <g transform="matrix(1,0,0,1,498.948,355.095)">
            <path d="M0,31.891L-19.128,31.891L-19.128,0L0,0C8.009,0 14.502,6.493 14.502,14.502L14.502,17.388C14.502,25.398 8.009,31.891 0,31.891" style="fill:rgb(59,90,155);fill-rule:nonzero;"/>
        </g>
        <g transform="matrix(0.985423,0,0,1,1.17167,0)">
            <text x="80.375px" y="590.943px" style="font-family:'Arial-BoldMT', 'Arial', sans-serif;font-weight:700;font-size:57.62px;fill:rgb(59,90,155);">A<tspan x="120.342px 134.706px 170.453px 190.718px 230.685px 273.859px 307.411px 321.775px 361.742px 396.419px 433.207px 469.994px 489.767px 526.555px " y="590.943px 590.943px 590.943px 590.943px 590.943px 590.943px 590.943px 590.943px 590.943px 590.943px 590.943px 590.943px 590.943px 590.943px ">IP HOLIDAYS SD</tspan></text>
            <text x="566.521px" y="590.943px" style="font-family:'Arial-BoldMT', 'Arial', sans-serif;font-weight:700;font-size:57.62px;fill:rgb(59,90,155);">N<tspan x="606.488px " y="590.943px ">.</tspan></text>
            <text x="656.376px" y="590.943px" style="font-family:'Arial-BoldMT', 'Arial', sans-serif;font-weight:700;font-size:57.62px;fill:rgb(59,90,155);"><tspan x="656.376px 696.342px " y="590.943px 590.943px ">BH</tspan></text>
            <text x="736.309px" y="590.943px" style="font-family:'Arial-BoldMT', 'Arial', sans-serif;font-weight:700;font-size:57.62px;fill:rgb(59,90,155);">D<tspan x="776.276px " y="590.943px ">.</tspan></text>
        </g>
        <g transform="matrix(1.01458,0,0,1,-1.16468,0)">
            <text x="79.868px" y="657.3px" style="font-family:'FootlightMTLight', 'Footlight MT Light', serif;font-weight:300;font-size:33.938px;fill:rgb(35,31,32);">E<tspan x="107.674px 136.906px 166.486px 192.884px 217.874px 238.621px 265.019px 295.312px 322.058px 348.456px 368.491px 386.874px 398.42px 428.714px 455.114px 475.151px 502.611px 528.564px 555.925px 582.325px 603.074px 623.111px 651.284px 661.733px 696.274px 717.719px 745.444px " y="657.3px 657.3px 657.3px 657.3px 657.3px 657.3px 657.3px 657.3px 657.3px 657.3px 657.3px 657.3px 657.3px 657.3px 657.3px 657.3px 657.3px 657.3px 657.3px 657.3px 657.3px 657.3px 657.3px 657.3px 657.3px 657.3px 657.3px ">xperience T he Level of Joy</tspan></text>
        </g>
        <g transform="matrix(1,0,0,1,80.4753,615.602)">
            <path d="M0,0L692.556,0" style="fill:none;fill-rule:nonzero;stroke:rgb(59,90,155);stroke-width:0.81px;"/>
        </g>
    </g>
</svg>
