<?xml version="1.0" encoding="UTF-8" standalone="no"?>
<!DOCTYPE svg PUBLIC "-//W3C//DTD SVG 1.1//EN" "http://www.w3.org/Graphics/SVG/1.1/DTD/svg11.dtd">
<svg width="100%" height="100%" viewBox="0 0 98 85" version="1.1" xmlns="http://www.w3.org/2000/svg" xmlns:xlink="http://www.w3.org/1999/xlink" xml:space="preserve" xmlns:serif="http://www.serif.com/" style="fill-rule:evenodd;clip-rule:evenodd;stroke-linejoin:round;stroke-miterlimit:2;">
    <g>
        <g transform="matrix(1,0,0,1,-1,-6)">
            <path d="M48.711,45.359L51.281,45.359C52.301,45.359 53.313,45.41 54.301,45.5L54.301,43.41C54.301,42.429 53.961,41.531 53.402,40.808C53.281,40.66 53.172,40.5 53.043,40.367C52.262,39.586 51.184,39.105 49.992,39.105C48.801,39.105 47.652,39.636 46.871,40.465C46.141,41.234 45.68,42.273 45.68,43.414L45.68,45.492C46.68,45.414 47.68,45.363 48.699,45.363L48.711,45.359Z" style="fill:rgb(58,90,155);fill-rule:nonzero;"/>
        </g>
        <g transform="matrix(1,0,0,1,-1,-6)">
            <path d="M74.379,25.141C74.84,23.95 75.359,22.61 74.91,21.34C74.871,21.231 74.77,21.161 74.641,21.168C74.52,21.18 74.422,21.27 74.402,21.387C74.223,22.446 73.723,23.137 73.184,23.875C72.785,24.426 72.375,24.996 72.043,25.754C71.324,27.582 71.582,29.895 72.684,31.493C73.856,33.223 73.844,35.141 72.645,37.571C72.324,38.45 72.285,39.442 72.516,40.352C72.547,40.473 72.645,40.551 72.766,40.551L72.777,40.551C72.906,40.551 73.008,40.45 73.027,40.332C73.199,39.274 73.707,38.582 74.246,37.844C74.645,37.293 75.055,36.723 75.387,35.965C75.797,34.946 75.809,33.914 75.758,33.055C75.738,32.004 75.258,31.157 74.789,30.324C74.418,29.676 74.078,29.063 73.969,28.383C73.848,27.711 73.84,26.961 73.957,26.352C74.059,25.981 74.219,25.571 74.379,25.141L74.379,25.141Z" style="fill:rgb(58,90,155);fill-rule:nonzero;"/>
        </g>
        <g transform="matrix(1,0,0,1,-1,-6)">
            <path d="M25.102,40.352C25.133,40.473 25.231,40.551 25.352,40.551L25.364,40.551C25.493,40.551 25.594,40.45 25.614,40.332C25.786,39.274 26.293,38.582 26.833,37.844C27.231,37.293 27.641,36.723 27.973,35.965C28.383,34.946 28.395,33.914 28.344,33.055C28.325,32.004 27.844,31.157 27.375,30.325C27.004,29.676 26.665,29.063 26.555,28.383C26.434,27.711 26.426,26.961 26.543,26.352C26.645,25.981 26.805,25.571 26.965,25.141C27.426,23.95 27.946,22.61 27.497,21.34C27.457,21.231 27.356,21.161 27.227,21.168C27.106,21.18 27.008,21.27 26.989,21.387C26.809,22.446 26.309,23.137 25.77,23.875C25.372,24.426 24.961,24.997 24.629,25.754C23.911,27.582 24.168,29.895 25.27,31.493C26.442,33.223 26.43,35.141 25.231,37.571C24.911,38.45 24.872,39.442 25.102,40.352L25.102,40.352Z" style="fill:rgb(58,90,155);fill-rule:nonzero;"/>
        </g>
        <g transform="matrix(1,0,0,1,-1,-6)">
            <path d="M50.672,15.711C51.133,14.52 51.652,13.18 51.203,11.91C51.164,11.801 51.063,11.731 50.934,11.738C50.813,11.75 50.715,11.84 50.695,11.957C50.516,13.016 50.016,13.707 49.477,14.445C49.078,14.996 48.668,15.566 48.336,16.324C47.617,18.152 47.875,20.465 48.977,22.063C50.149,23.793 50.137,25.711 48.938,28.141C48.617,29.02 48.578,30.012 48.809,30.922C48.84,31.043 48.938,31.121 49.059,31.121L49.07,31.121C49.199,31.121 49.301,31.02 49.32,30.902C49.5,29.844 50,29.152 50.539,28.414C50.938,27.863 51.348,27.293 51.68,26.535C52.09,25.516 52.102,24.484 52.051,23.625C52.031,22.574 51.551,21.727 51.082,20.894C50.711,20.246 50.371,19.633 50.262,18.953C50.141,18.281 50.133,17.531 50.25,16.922C50.352,16.551 50.512,16.141 50.672,15.711L50.672,15.711Z" style="fill:rgb(58,90,155);fill-rule:nonzero;"/>
        </g>
        <g transform="matrix(1,0,0,1,-1,-6)">
            <path d="M11.398,88.262L88.597,88.262C89.367,88.262 89.995,87.633 89.995,86.864L89.995,83.625C89.995,82.844 89.366,82.227 88.597,82.227L11.398,82.219C10.617,82.219 10,82.84 10,83.617L10,86.856C10,87.625 10.621,88.254 11.398,88.254L11.398,88.262Z" style="fill:rgb(58,90,155);fill-rule:nonzero;"/>
        </g>
        <g transform="matrix(1,0,0,1,-1,-6)">
            <path d="M84.969,80.109C84.41,62.019 69.52,47.461 51.289,47.461L48.711,47.461C30.492,47.461 15.59,62.02 15.039,80.109L84.98,80.109L84.969,80.109ZM48.711,51.671C45.301,52.12 42.02,52.933 38.949,54.222C29.578,58.062 22.609,66.234 19.699,75.902C20.391,61.691 34.609,49.824 48.711,51.672L48.711,51.671Z" style="fill:rgb(58,90,155);fill-rule:nonzero;"/>
        </g>
    </g>
</svg>
